<svg id="Group_39" data-name="Group 39" xmlns="http://www.w3.org/2000/svg" xmlns:xlink="http://www.w3.org/1999/xlink" width="359.284" height="39.999" viewBox="0 0 359.284 39.999">
  <defs>
    <clipPath id="clip-path">
      <rect id="Rectangle_49" data-name="Rectangle 49" width="359.284" height="39.999" fill="none"></rect>
    </clipPath>
  </defs>
  <path id="Path_61" data-name="Path 61" d="M510.22,16.257V1.03H512.9l7.07,11.712h.044V1.03h2.365V16.257H519.7L512.608,4.545h-.044V16.257H510.22Z" transform="translate(-361.275 -0.729)" fill="#fff"></path>
  <g id="Group_38" data-name="Group 38">
    <g id="Group_37" data-name="Group 37" clip-path="url(#clip-path)">
      <path id="Path_62" data-name="Path 62" d="M562.96,11.081V1.03H565.3V11.081c0,2.365,1.194,3.451,3.6,3.451s3.6-1.086,3.6-3.451V1.03h2.365V11.081c0,3.278-1.766,5.474-5.964,5.474S562.96,14.362,562.96,11.081Z" transform="translate(-398.619 -0.729)" fill="#fff"></path>
      <path id="Path_63" data-name="Path 63" d="M612.28,7.923c0-4.6,2.811-7.923,7.135-7.923a6.167,6.167,0,0,1,6.539,5.474H623.5a3.881,3.881,0,0,0-4.131-3.451c-3.366,0-4.642,2.852-4.642,5.876s1.279,5.9,4.642,5.9A3.821,3.821,0,0,0,623.5,9.987h2.449a6.2,6.2,0,0,1-6.56,5.836c-4.323,0-7.114-3.322-7.114-7.9Z" transform="translate(-433.542)" fill="#fff"></path>
      <path id="Path_64" data-name="Path 64" d="M667.43,16.257V1.03h2.341v13.2h7.71v2.023Z" transform="translate(-472.592 -0.729)" fill="#fff"></path>
      <path id="Path_65" data-name="Path 65" d="M709.23,16.257V1.03H720V3.053h-8.434V7.376h7.389V9.4h-7.389v4.834h8.647v2.023Z" transform="translate(-502.19 -0.729)" fill="#fff"></path>
      <path id="Path_66" data-name="Path 66" d="M752.05,16.257,757.716,1.03h2.534l5.707,15.227H763.4l-1.255-3.664h-6.367l-1.255,3.664H752.05Zm4.428-5.646h5L758.989,3.2h-.044l-2.47,7.412Z" transform="translate(-532.51 -0.729)" fill="#fff"></path>
      <path id="Path_67" data-name="Path 67" d="M806.18,16.257V1.03h6.346c3.366,0,5.176,1.576,5.176,4.388a3.646,3.646,0,0,1-2.855,3.728v.044c3.535.66,2.236,6.665,3.065,6.921v.149H815.4c-.683-.639.768-5.964-2.96-5.964h-3.918V16.26H806.18Zm5.836-7.987c2.151,0,3.322-.937,3.322-2.683,0-1.641-.937-2.534-3.278-2.534h-3.535V8.27Z" transform="translate(-570.838 -0.729)" fill="#fff"></path>
      <path id="Path_68" data-name="Path 68" d="M873.87,10.4H876.3c.169,2.043,1.384,3.43,4.239,3.43,2.449,0,3.194-1.066,3.194-2.449,0-1.938-1.492-2.216-4.259-2.916-2.385-.639-5-1.407-5-4.3,0-2.642,2.043-4.154,5.325-4.154,3.471,0,5.728,1.766,5.964,4.834h-2.429c-.257-1.83-1.3-2.832-3.515-2.832-1.915,0-2.9.7-2.9,2.023,0,1.7,1.6,2.067,3.556,2.554,2.94.744,5.707,1.448,5.707,4.665,0,2.619-1.766,4.577-5.579,4.577s-6.56-2-6.729-5.43Z" transform="translate(-618.767 -0.007)" fill="#fff"></path>
      <path id="Path_69" data-name="Path 69" d="M924.5,16.257V1.03h10.775V3.053h-8.434V7.376h7.388V9.4h-7.388v4.834h8.647v2.023Z" transform="translate(-654.617 -0.729)" fill="#fff"></path>
      <path id="Path_70" data-name="Path 70" d="M968.35,7.923c0-4.6,2.811-7.923,7.135-7.923a6.167,6.167,0,0,1,6.539,5.474h-2.449a3.881,3.881,0,0,0-4.131-3.451c-3.366,0-4.642,2.852-4.642,5.876s1.279,5.9,4.642,5.9a3.822,3.822,0,0,0,4.131-3.813h2.449a6.2,6.2,0,0,1-6.56,5.836c-4.323,0-7.114-3.322-7.114-7.9Z" transform="translate(-685.667)" fill="#fff"></path>
      <path id="Path_71" data-name="Path 71" d="M1023.13,11.081V1.03h2.341V11.081c0,2.365,1.194,3.451,3.6,3.451s3.6-1.086,3.6-3.451V1.03h2.365V11.081c0,3.278-1.766,5.474-5.964,5.474S1023.13,14.362,1023.13,11.081Z" transform="translate(-724.455 -0.729)" fill="#fff"></path>
      <path id="Path_72" data-name="Path 72" d="M1075,16.257V1.03h6.346c3.366,0,5.176,1.576,5.176,4.388a3.646,3.646,0,0,1-2.855,3.728v.044c3.535.66,2.236,6.665,3.065,6.921v.149h-2.513c-.683-.639.768-5.964-2.96-5.964h-3.917V16.26H1075Zm5.836-7.987c2.151,0,3.322-.937,3.322-2.683,0-1.641-.937-2.534-3.278-2.534h-3.535V8.27Z" transform="translate(-761.183 -0.729)" fill="#fff"></path>
      <rect id="Rectangle_47" data-name="Rectangle 47" width="2.341" height="15.227" transform="translate(328.533 0.301)" fill="#fff"></rect>
      <path id="Path_73" data-name="Path 73" d="M1145.719,16.257V3.053H1140.8V1.03H1153V3.053h-4.919v13.2Z" transform="translate(-807.775 -0.729)" fill="#fff"></path>
      <path id="Path_74" data-name="Path 74" d="M1190.743,16.257v-6.09L1185.29,1.03h2.534l4.09,7.283h.044l4.09-7.283h2.513l-5.453,9.137v6.09Z" transform="translate(-839.277 -0.729)" fill="#fff"></path>
      <path id="Path_75" data-name="Path 75" d="M498.4,99.057v-13.2H493.48V83.83h12.2v2.023h-4.919v13.2Z" transform="translate(-349.422 -59.358)" fill="#fff"></path>
      <path id="Path_76" data-name="Path 76" d="M542.64,99.057V83.83h10.775v2.023h-8.434v4.323h7.389V92.2h-7.389v4.834h8.647v2.023Z" transform="translate(-384.231 -59.358)" fill="#fff"></path>
      <path id="Path_77" data-name="Path 77" d="M585.03,90.733c0-4.6,2.811-7.923,7.135-7.923a6.167,6.167,0,0,1,6.539,5.474h-2.449a3.881,3.881,0,0,0-4.131-3.451c-3.366,0-4.642,2.852-4.642,5.876s1.279,5.9,4.642,5.9a3.821,3.821,0,0,0,4.131-3.813H598.7a6.2,6.2,0,0,1-6.56,5.836c-4.323,0-7.114-3.322-7.114-7.9Z" transform="translate(-414.246 -58.636)" fill="#fff"></path>
      <path id="Path_78" data-name="Path 78" d="M640.18,99.057V83.83h2.341V90.2H650V83.83h2.365V99.057H650V92.22h-7.476v6.837Z" transform="translate(-453.297 -59.358)" fill="#fff"></path>
      <path id="Path_79" data-name="Path 79" d="M693.28,99.057V83.83h2.683l7.07,11.712h.044V83.83h2.365V99.057h-2.683l-7.091-11.712h-.044V99.057H693.28Z" transform="translate(-490.896 -59.358)" fill="#fff"></path>
      <path id="Path_80" data-name="Path 80" d="M743.84,90.712c0-4.577,2.916-7.9,7.476-7.9s7.476,3.322,7.476,7.9-2.916,7.923-7.476,7.923-7.476-3.343-7.476-7.923m12.5,0c0-3.129-1.427-5.876-5.027-5.876s-5.027,2.747-5.027,5.876,1.427,5.9,5.027,5.9,5.027-2.767,5.027-5.9" transform="translate(-526.696 -58.636)" fill="#fff"></path>
      <path id="Path_81" data-name="Path 81" d="M803.95,99.057V83.83h2.341v13.2H814v2.023Z" transform="translate(-569.259 -59.358)" fill="#fff"></path>
      <path id="Path_82" data-name="Path 82" d="M839.62,90.712c0-4.577,2.916-7.9,7.476-7.9s7.476,3.322,7.476,7.9-2.916,7.923-7.476,7.923-7.476-3.343-7.476-7.923m12.5,0c0-3.129-1.427-5.876-5.027-5.876s-5.027,2.747-5.027,5.876,1.428,5.9,5.027,5.9,5.027-2.767,5.027-5.9" transform="translate(-594.516 -58.636)" fill="#fff"></path>
      <path id="Path_83" data-name="Path 83" d="M897.243,90.712c0-4.577,2.791-7.9,7.135-7.9,3.941,0,6.028,2.108,6.516,5h-2.449c-.406-1.918-1.83-2.981-4.09-2.981-3.366,0-4.665,3.024-4.665,5.876s.981,5.9,4.536,5.9a4.314,4.314,0,0,0,4.536-4.28H904.27V90.371h6.878v7.964H909.53l-.575-2.108h-.044a5.294,5.294,0,0,1-4.814,2.405c-4.388,0-6.857-3.322-6.857-7.923Z" transform="translate(-635.315 -58.636)" fill="#fff"></path>
      <rect id="Rectangle_48" data-name="Rectangle 48" width="2.341" height="15.227" transform="translate(279.093 24.472)" fill="#fff"></rect>
      <path id="Path_84" data-name="Path 84" d="M975.52,99.057V83.83h10.775v2.023h-8.434v4.323h7.389V92.2h-7.389v4.834h8.647v2.023Z" transform="translate(-690.743 -59.358)" fill="#fff"></path>
      <path id="Path_85" data-name="Path 85" d="M1018.34,93.2h2.429c.169,2.043,1.384,3.43,4.239,3.43,2.449,0,3.194-1.066,3.194-2.449,0-1.938-1.492-2.216-4.259-2.916-2.385-.639-5-1.407-5-4.3,0-2.642,2.043-4.154,5.325-4.154,3.471,0,5.728,1.766,5.964,4.834H1027.8c-.257-1.83-1.3-2.832-3.515-2.832-1.915,0-2.9.7-2.9,2.023,0,1.7,1.6,2.067,3.556,2.554,2.94.744,5.707,1.448,5.707,4.665,0,2.619-1.766,4.577-5.579,4.577s-6.56-2-6.729-5.43Z" transform="translate(-721.063 -58.636)" fill="#fff"></path>
      <path id="Path_86" data-name="Path 86" d="M201.445,1.331,187.512,27.54c-3.258,5.891-7.616,5.809-8.723-.248l-3.918-21.36c-1.121-6.139-8.256-6.139-11.525,0L151.921,27.3c-3.27,6.142-7.733,6.142-8.854,0L138.34,1.384l-4.72,8.764,4.726,25.92c1.121,6.142,8.256,6.142,11.525,0l11.42-21.378c3.27-6.139,7.742-6.139,8.863,0l3.918,21.36c1.121,6.139,8.256,6.139,11.525,0L204.108,1.328h-2.659Z" transform="translate(-94.613 -0.94)" fill="#fff"></path>
      <path id="Path_87" data-name="Path 87" d="M414.705,53.67H405.95l-4.72,8.766h8.755Z" transform="translate(-284.102 -38.003)" fill="#fff"></path>
      <path id="Path_88" data-name="Path 88" d="M395.284,114.794,400,106.03H378.843l-4.723,8.764Z" transform="translate(-264.906 -75.077)" fill="#fff"></path>
      <path id="Path_89" data-name="Path 89" d="M359.361,1.339h-.015c-2.347-.026-4.977,1.509-6.627,4.607L336.828,35.687l-2.648,4.977h2.642l13.837-25.955c1.649-3.1,4.195-4.706,6.271-4.607h14.795l4.72-8.764Z" transform="translate(-236.625 -0.948)" fill="#fff"></path>
      <path id="Path_90" data-name="Path 90" d="M30.013,6C28.9-.168,21.763-.168,18.487,6L0,40.69H2.659L7.321,31.92h8.769l4.72-8.764H11.981L16.424,14.8c3.275-6.162,7.748-6.16,8.863.009l4.7,25.882,4.72-8.764L30.013,6" transform="translate(0 -0.974)" fill="#fff"></path>
    </g>
  </g>
</svg>
