<?xml version="1.0" encoding="utf-8"?>
<!-- Generator: Adobe Illustrator 28.0.0, SVG Export Plug-In . SVG Version: 6.00 Build 0)  -->
<svg version="1.1" id="Layer_1" xmlns="http://www.w3.org/2000/svg" xmlns:xlink="http://www.w3.org/1999/xlink" x="0px" y="0px"
	 viewBox="0 0 170.079 170.079" style="enable-background:new 0 0 170.079 170.079;" xml:space="preserve">
<style type="text/css">
	.st0{fill:#131B30;}
	.st1{fill:#0073FF;}
	.st2{fill:#FFFFFF;}
</style>
<rect class="st0" width="170.079" height="170.079"/>
<g>
	<circle class="st1" cx="142.488" cy="110.148" r="10.258"/>
	<g>
		<path class="st2" d="M96.131,49.677c-1.669,0-0.894,0-2.563,0c-8.613,0-16.09,2.462-21.513,6.919
			c-5.515-4.457-13.041-6.919-21.493-6.919c-1.669,0-0.895,0-2.563,0c-17.695,0-30.666,10.32-30.666,27.209v43.52h18.55V81.65
			c0-9.454,5.751-14.611,13.51-14.765c7.758,0.154,13.509,5.311,13.509,14.765v38.757h18.55V81.65
			c0-9.454,5.751-14.611,13.51-14.765c7.758,0.154,13.509,5.311,13.509,14.765v38.757h18.55v-43.52
			C127.019,59.997,113.495,49.677,96.131,49.677z"/>
	</g>
</g>
</svg>
